<?xml version="1.0" encoding="utf-8"?>
<!-- Generator: Adobe Illustrator 23.0.3, SVG Export Plug-In . SVG Version: 6.00 Build 0)  -->
<svg version="1.1" id="Layer_1" xmlns="http://www.w3.org/2000/svg" xmlns:xlink="http://www.w3.org/1999/xlink" x="0px" y="0px"
	 viewBox="0 0 380 380" enable-background="new 0 0 380 380" xml:space="preserve">
<g>
	<defs>
		<circle id="SVGID_1_" cx="190" cy="190" r="191.199"/>
	</defs>
	<clipPath id="SVGID_2_">
		<use xlink:href="#SVGID_1_"  overflow="visible"/>
	</clipPath>
	<path clip-path="url(#SVGID_2_)" fill="#010103" d="M75.6424,204.3326c4.1016-3.3741,6.3387-6.8118,8.6707-10.1466
		c8.0422-11.5006,13.9502-24.1752,20.1545-36.6888c0.8062-1.626,1.8494-3.1604,2.9575-4.6031
		c1.0055-1.3091,2.234-2.8352,4.1375-1.9456c1.7194,0.8036,2.9073,2.3545,2.7145,4.3966c-0.2017,2.1371-0.3942,4.3489-1.0915,6.3538
		c-6.0611,17.4277-14.6656,33.4852-26.2272,47.9085c-1.0387,1.2957-2.1512,2.5562-3.3719,3.6781
		c-5.8327,5.3605-13.1562,3.8421-16.109-3.4843c-1.0425-2.5865-1.5372-5.4286-2.0095-8.2005
		c-0.4723-2.7718-0.6038-5.6016-0.9598-9.1561c-2.2222,3.7667-3.97,7.0266-6.0056,10.0956
		c-2.0123,3.0339-4.7184,5.2863-8.6772,4.7876c-4.0333-0.5081-4.9851-3.9567-6.2004-7.0515
		c-2.0643-5.2567-1.9553-10.7904-1.8485-16.2787c0.1329-6.8251,0.3675-13.6561,0.8447-20.4644
		c0.4653-6.6384,2.3775-8.9264,6.5636-8.6667c4.5546,0.2826,7.9716,4.9594,8.4028,10.1954
		c0.5214,6.3306-2.4163,11.8439-3.3634,17.8024c-0.1601,1.0074-1.7041,2.2543,0.0433,2.867
		c1.5782,0.5533,1.6753-1.321,1.9891-2.2474c2.4009-7.0878,4.7536-14.194,6.9685-21.3418c0.8612-2.7791,1.5203-5.8417,4.9498-6.0719
		c3.2162-0.2158,5.0631,2.3439,6.3434,4.9137c2.8809,5.7827,2.3001,11.9933,1.6379,18.1093
		C75.282,187.1665,75.7237,195.2079,75.6424,204.3326z"/>
	<path clip-path="url(#SVGID_2_)" fill="#010103" d="M200.3516,115.8656c-1.1625-7.2185-2.2551-13.9452-3.3264-20.6753
		c-0.6884-4.3246,1.2079-7.2196,4.955-7.6195c3.9342-0.4198,6.627,2.3785,6.5995,6.8124
		c-0.0427,6.8819,1.9878,13.4708,2.8711,20.2213c0.2777,2.1221,1.7367,2.0627,3.2609,2.1975
		c2.8186,0.2493,5.6446,0.4809,8.441,0.8977c3.2477,0.484,4.4014,2.8537,4.2967,5.7634c-0.1068,2.9672-1.6732,5.021-4.8124,5.4252
		c-0.9762,0.1257-1.9937,0.0294-2.9832-0.0622c-6.6276-0.6138-6.6622-0.6177-5.8103,5.9255
		c0.5781,4.4404,1.1252,8.8936,1.9581,13.2895c0.7896,4.1671-0.5898,6.9367-4.697,7.9002c-3.7594,0.8819-6.501-1.5694-7.13-6.3046
		c-0.8548-6.4344-1.6041-12.887-2.1852-19.351c-0.1866-2.0762-0.8283-2.7826-2.9424-2.8774
		c-6.6541-0.2984-13.3058-0.7411-19.9408-1.3268c-2.4395-0.2154-3.2115,0.7461-3.5088,2.9661
		c-0.5965,4.4534-1.419,8.8763-2.129,13.3149c-0.5892,3.6838-2.9309,5.1802-6.3946,4.6745
		c-3.4444-0.5029-5.3283-2.5337-4.7357-6.2743c0.3643-2.2999,0.7092-4.6033,1.0276-6.9099c0.5064-3.6695,2.6067-7.7802-4.0921-8.43
		c-2.3519-0.2281-3.4897-3.4048-2.8337-6.1835c0.6249-2.6472,2.2407-5.0577,5.0445-4.6144
		c4.4922,0.7104,4.6452-1.7739,4.9809-4.9646c0.5746-5.4607,1.5074-10.8828,2.2244-16.3297
		c0.5314-4.0364,2.8128-6.1126,6.7949-5.4617c3.957,0.6468,5.394,3.3569,4.7993,7.3239c-0.839,5.5972-1.4798,11.2238-2.284,16.8266
		c-0.2443,1.7022-0.258,2.7853,2.0151,2.8578C186.6032,115.0935,193.3849,115.515,200.3516,115.8656z"/>
	<path clip-path="url(#SVGID_2_)" fill="#010103" d="M231.3769,315.2371c-0.33-4.7015-0.8054-10.0125-1.0311-15.334
		c-0.106-2.5005-0.8934-3.0027-3.3658-2.5296c-9.9696,1.9079-19.988,3.524-30.0862,4.6721
		c-4.1588,0.4728-6.6418-0.8414-6.8753-5.0075c-0.2177-3.8843,1.4781-5.9375,5.9247-6.0759
		c10.1654-0.3163,20.1295-2.4533,30.1322-4.183c2.2166-0.3833,2.6827-1.3483,2.4304-3.3587
		c-2.6712-21.2815-3.757-42.8159-10.2091-63.4895c-1.3787-4.4177-0.0597-8.1459,3.375-9.0874
		c4.5511-1.2476,6.5973,1.8024,7.5981,5.2977c3.1209,10.8996,4.7605,22.1087,6.2065,33.3321
		c1.3397,10.3993,2.6142,20.8098,3.6882,31.2389c0.3151,3.0604,1.2542,3.5064,4.0717,2.5974
		c4.2626-1.3752,8.8078-2.0379,12.7175-4.2849c2.8042-1.6116,5.3387-2.7036,7.0443,0.8604
		c1.6007,3.3447,1.1894,6.9317-2.4807,8.5484c-4.6953,2.0684-9.6361,3.8058-14.6444,4.8705
		c-4.4848,0.9534-5.3907,2.9291-4.8257,7.2366c0.864,6.5872,0.9339,13.2794,1.3194,19.9283
		c0.2235,3.8541-1.3208,6.6177-5.3239,7.1131c-3.3985,0.4205-5.6046-2.6128-5.6627-7.2321
		C231.361,318.8511,231.3769,317.3517,231.3769,315.2371z"/>
	<path clip-path="url(#SVGID_2_)" fill="#010103" d="M264.045,170.7493c5.6902,1.9565,10.8532,3.6494,15.9502,5.5218
		c2.2553,0.8285,5.2052,1.1697,5.5743,4.2715c0.3996,3.3577-0.8686,6.2661-3.6771,8.232
		c-5.3883,3.7718-10.8621,7.4214-17.0833,11.6544c12.3159,1.6124,23.7968,1.2177,35.0579,3.1034
		c1.3024,0.2181,2.6514,0.3757,3.8679,0.8474c3.1474,1.2206,4.1319,3.7231,3.4342,6.8546
		c-0.7023,3.1524-3.0524,4.4813-5.9909,3.8825c-15.0929-3.0758-30.5019-2.4055-45.7017-4.0909
		c-4.1301-0.458-9.2772-0.1349-10.7556-5.4774c-1.548-5.5939,3.3741-7.3224,6.8401-9.6809
		c5.3356-3.6308,10.7662-7.1222,16.9907-11.2222c-7.015-2.259-13.1999-4.3166-19.4294-6.229
		c-3.091-0.9489-5.6151-2.3239-5.6495-5.9863c-0.0322-3.4286,2.0659-5.6564,4.9423-6.8639
		c7.8544-3.2974,14.8828-8.106,22.4314-11.953c1.1655-0.594,2.545-1.2557,3.1923-2.2845c1.7189-2.7321,3.8517-4.1091,7.0622-3.14
		c2.4621,0.7431,4.0584,2.5446,4.2172,5.0412c0.2106,3.3129-0.9214,6.3717-3.9225,8.0949
		c-4.7567,2.7313-9.6842,5.1647-14.5324,7.7375C266.134,169.4492,265.4435,169.9086,264.045,170.7493z"/>
	<path clip-path="url(#SVGID_2_)" fill="#020204" d="M252.3349,120.5924c-6.445-0.6429-12.8837-1.3611-19.3376-1.896
		c-3.0689-0.2543-5.6503-1.1329-6.5369-4.3348c-0.901-3.2539,0.3899-6.0694,3.0205-7.8765
		c6.7535-4.6394,12.4264-10.5311,18.71-15.7086c1.7743-1.462,3.4854-2.8941,4.3912-5.2688c1.0045-2.6335,3.416-3.4703,6.1841-2.8881
		c2.9838,0.6275,4.6652,2.5263,4.7974,5.5459c0.145,3.3096-0.8552,6.1149-3.6457,8.2991
		c-4.4377,3.4736-8.6902,7.1836-13.9014,11.5274c5.9794,0.7522,10.9858,1.3671,15.9876,2.017
		c2.9227,0.3798,6.4527,0.1121,7.4583,3.7171c0.9456,3.39-0.11,6.6224-2.833,9.0514c-4.5841,4.089-9.223,8.1167-13.8387,12.1703
		c0.455,0.6737,0.9099,1.3474,1.3649,2.0211c6.2491-0.8511,12.5044-1.6593,18.7455-2.5656
		c6.0941-0.8849,12.1636-2.0337,18.359-1.7749c3.6917,0.1542,5.3081,2.4988,5.421,5.8947c0.1161,3.4901-1.9938,5.3272-5.278,5.3129
		c-14.7486-0.0642-29.0226,3.6712-43.5616,5.2492c-2.1444,0.2327-4.3092,0.2909-6.4666,0.387
		c-3.2416,0.1444-5.8584-0.7313-7.2395-4.062c-1.3536-3.2642,0.3581-5.5255,2.3909-7.5325
		c5.4267-5.3579,10.99-10.5774,16.499-15.852C252.7951,121.5479,252.565,121.0701,252.3349,120.5924z"/>
	<path clip-path="url(#SVGID_2_)" fill="#020204" d="M154.3587,89.8945c-6.7159-0.1742-13.1756,1.8021-19.805,2.362
		c-1.9673,0.1662-2.4941,1.0031-1.61,2.9578c5.5511,12.2724,10.5358,24.7724,15.2299,37.4017
		c1.836,4.9397,1.5874,7.9593-2.15,9.7328c-3.9443,1.8716-7.8827,0.3817-9.3309-4.5563c-3.8109-12.994-9.83-25.0593-14.8645-37.5396
		c-1.9809-4.9106-4.1595-6.7721-9.546-5.0314c-6.7771,2.1901-14.0186,2.6469-20.7975,5.0938
		c-3.6537,1.3188-6.615-0.3323-8.117-3.8453c-1.4209-3.3234,0.6125-6.7835,4.7952-7.7717
		c7.6047-1.7967,15.2834-3.2887,22.9533-4.7953c1.8869-0.3706,3.0767-0.8798,4.0707-2.8876
		c2.2983-4.6424,7.1156-5.4518,10.6382-1.7536c1.8117,1.902,3.4146,1.9905,5.681,1.7558
		c8.1131-0.8403,16.0779-2.8426,24.2817-2.9741c6.3546-0.1018,9.6271,1.942,9.4836,6.1561
		c-0.1297,3.8097-3.2859,5.719-9.4135,5.6951C155.3582,89.8928,154.8584,89.8945,154.3587,89.8945z"/>
	<path clip-path="url(#SVGID_2_)" fill="#010103" d="M193.1861,250.13c3.1583-2.9204,4.4196-6.7153,5.9989-10.1971
		c2.0531-4.5264,3.5607-9.2979,5.3844-13.9319c0.8465-2.1509,1.6205-4.6013,4.7459-4.1034
		c3.1253,0.4978,4.9274,2.1365,5.3491,5.5426c0.9433,7.6204,0.3115,15.2754,0.8276,22.8941
		c0.244,3.6024,0.4763,7.1099,3.3751,10.0439c2.4911,2.5213,1.4956,5.7692-0.4909,8.1655
		c-2.1559,2.6006-4.5976,0.6783-6.6597-0.5727c-4.729-2.8687-6.2247-7.8132-7.6016-13.2076
		c-2.3612,3.1946-4.2767,6.0858-6.5015,8.7153c-2.4165,2.856-5.2897,5.3603-9.4368,4.237
		c-4.2736-1.1576-5.8532-4.8564-6.5546-8.6591c-1.9344-10.4868-1.2511-20.8523,2.3986-30.9409
		c0.6203-1.7147,1.355-3.3893,2.0713-5.0678c0.9475-2.2202,2.1478-4.4907,5.0048-3.792c2.5466,0.6227,4.0478,2.4612,4.4762,5.3208
		c1.1909,7.9485-0.7769,15.4882-2.6384,23.0531C192.7793,248.2602,192.3609,248.7871,193.1861,250.13z"/>
	<path clip-path="url(#SVGID_2_)" fill="#050405" d="M121.3702,253.858c0.9245-8.9709,4.0947-17.0413,9.6233-24.1874
		c0.6789-0.8776,2.024-1.6219,1.6138-2.9124c-1.7703-5.5695,1.9244-6.2591,5.8448-6.5465
		c5.465-0.4007,10.9272-0.5753,16.3916,0.3568c15.9751,2.725,24.203,13.9084,21.833,29.8962
		c-0.315,2.125-0.8277,4.2208-1.2489,6.3301c-0.3967,3.3297-1.5566,6.3942-3.2124,9.2901
		c-1.3488,1.9661-2.0377,4.5375-4.7668,5.2523c-2.1371-0.5244-3.4146-1.8403-3.7225-4.0481
		c0.0491-0.7293,0.3301-1.3643,0.7983-1.9177c1.6058-1.5155,2.9382-3.2326,3.7741-5.3035c0.6108-1.6709,1.4663-3.2225,2.2872-4.7898
		c0.7658-1.4329,0.5931-2.996,0.6172-4.5307c0.2298-4.717,0.0034-9.3508-2.5241-13.5456c-1.545-2.5642-3.4028-4.7301-6.9812-5.3058
		c0.1377,3.1697,3.4955,4.8224,2.4178,7.7937c-0.3141,0.9579-0.7752,2.2374-1.6478,2.3227
		c-4.1281,0.4036-8.0801,1.266-12.0796,2.4651c-2.4193,0.7254-3.3259-1.9704-2.0727-4.016
		c1.3696-2.2357,0.8443-3.6148-1.0487-4.9272c-0.8713-1.0191-1.569-2.2041-2.7836-2.899c-5.4576-3.6935-8.2181-2.923-11.1711,3.3517
		c3.1636,0.2508,3.7696-5.2898,7.4501-3.2056c0.3062,0.4022,0.5281,0.8426,0.6819,1.323c0.3584,2.7774,0.6155,5.516,2.0736,8.0806
		c1.3714,2.412,0.363,4.728-1.951,5.8612c-2.1942,1.0745-4.5338,1.8752-6.7698,2.9409c-2.4262,1.1564-3.1803-0.6486-3.3484-2.7409
		c-0.0751-1.2616,0.3237-2.9525-1.6842-2.9046c-1.4133,0.0337-1.626,1.4339-1.8826,2.5707
		c-1.6215,7.1825-1.5481,14.111,3.0773,20.3458c1.7101,3.285,4.8356,4.6143,8.0527,5.8129
		c4.5582,1.9711,9.106,1.5478,13.6472-0.0497c1.0856-0.5106,2.1681-1.0241,3.2737-1.4921c1.3787-0.5696,2.665-1.5747,4.3067-0.9335
		c2.256,2.4109,1.5463,4.883,0.1645,7.3741c-2.6299,3.0727-6.2618,4.4839-9.8711,5.9364c-3.5633,0.7593-6.9346,3.3028-10.819,1.2233
		c-4.9271-1.1931-8.4191-4.5675-11.9569-7.8845c-1.2119-1.5554-2.3691-3.1501-3.6299-4.6725
		C120.5464,267.3726,120.5745,260.6687,121.3702,253.858z"/>
	<path clip-path="url(#SVGID_2_)" fill="#020103" d="M260.2838,252.3115c4.4909-1.4838,6.326-4.9986,9.5532-6.7277
		c2.8566-1.5305,5.2597-1.7253,7.9322-0.2107c2.5269,1.4322,2.9795,3.7813,2.8046,6.4447c-0.185,2.8156-0.0733,5.6711-1.3592,8.2968
		c-1.178,2.4054-1.1991,4.6858,0.1207,7.1308c1.3248,2.4541,1.413,4.9726-0.2571,7.5245c-2.8725,4.3893-7.2052,4.3629-9.6579-0.3393
		c-2.2639-4.3404-1.9375-9.0117-0.8609-14.9007c-4.9182,5.6614-8.7178,10.8058-13.4925,15.0517
		c-2.1123,1.8784-4.084,3.6048-7.0205,2.1542c-3.0213-1.4926-3.5538-4.5104-3.1883-7.2858
		c0.496-3.7663,1.5241-7.5092,2.7308-11.1265c3.9641-11.8834,7.2031-24.0781,13.9804-34.8235
		c1.0672-1.692,1.8466-4.5448,4.6688-3.5065c3.0161,1.1096,3.2069,3.9037,2.7741,6.7251
		C267.6719,235.4549,264.4237,243.551,260.2838,252.3115z"/>
	<path clip-path="url(#SVGID_2_)" fill="#020204" d="M117.3756,265.0536c0.0542,0.9306,0.1084,1.8611,0.1626,2.7917
		c2.8157,6.5408,3.211,13.8661,6.5715,20.243c0.4696,0.8912,0.0429,1.9532-0.6649,2.7601
		c-5.3021,2.2123-8.758,0.8931-11.6139-4.8016c-3.4765-6.9321-4.6195-14.5564-6.0398-22.0711
		c-0.3926-2.0771-0.6856-3.8602-3.2646-4.2793c-6.914-1.1237-10.11-6.9217-14.5706-11.3171
		c-3.0384-2.994-2.4105-6.0371-2.4064-9.3397c0.0042-3.5123,1.8168-4.0699,4.5101-2.5361c2.9464,1.6779,5.006,4.2458,6.7235,7.1813
		c1.7312,2.959,3.2658,6.1328,6.7927,8.6771c-0.2148-6.0849-0.2071-11.6264,0.8432-17.079
		c0.3129-1.6243,0.5722-3.2957,1.1759-4.8187c0.9232-2.3289,2.6673-3.8978,5.3312-3.7296c2.7837,0.1757,4.6009,1.7604,5.3642,4.4642
		c1.3337,4.7244,0.7167,9.5978,1.0679,14.3976C116.6754,252.0827,116.6386,258.5685,117.3756,265.0536z"/>
	<path clip-path="url(#SVGID_2_)" fill="#020204" d="M211.2466,179.1268c-2.2936-0.7641-4.5166,0.0882-6.784,0.428
		c-4.8142,0.7214-8.9761-3.1326-8.6037-7.7656c0.1698-2.1127,1.0282-3.4575,3.1783-3.7979
		c10.8133-1.7123,21.486-4.3995,32.4945-4.7598c5.6467-0.1848,8.8821,1.792,9.6629,5.7858c0.8168,4.1776-0.5877,5.895-4.7704,5.9156
		c-2.4844,0.0122-4.9904-0.0799-7.4464,0.2129c-2.6244,0.3128-5.6875,0.3347-7.6739,1.7373
		c-2.381,1.6812,0.6324,4.4019,0.3133,6.7545c-0.8083,5.9604-2.9505,11.5421-4.8281,17.1964
		c-0.7867,2.3691-1.4349,4.6689-1.3329,7.2597c0.1804,4.5841-2.0735,5.9379-6.2915,4.0819
		c-4.2493-1.8698-5.3395-5.3165-4.2815-9.4703C206.8869,194.8388,209.1019,187.0262,211.2466,179.1268z"/>
	<path clip-path="url(#SVGID_2_)" fill="#F2DE27" d="M146.5287,334.7234c-0.067-5.2548-0.134-10.5095-0.2011-15.7643
		c-1.6134-1.7299-0.0367-4.4413-1.8772-6.1013c-1.553-2.1658-2.5324-4.2247-0.7293-6.9375
		c0.5688-0.8557-0.3126-2.6754-0.5303-4.0538c-0.3514-0.9617-0.18-1.9363-0.0859-2.9126c0.0446-1.037-0.0071-2.072,0.0072-3.113
		c0.2742-6.8621,1.1142-7.6635,7.4821-7.1575c1.4731,1.6974,1.1197,3.7815,1.2256,5.7682c0.2216,2.4901-0.4613,4.9314-0.4178,7.4145
		c-2.7169,6.3346-0.4031,12.3706,0.3053,18.7124c0.7326,6.5584,0.8045,13.4159,0.885,20.1492
		c0.4448,0.6997,0.7803,1.446,0.7702,2.2885c-0.0158,1.314,0.0408,2.7641-1.6463,3.112c-1.3987,0.2884-1.9857-0.8431-2.5471-1.8507
		c-0.4772-0.8565-0.9409-1.7222-1.2875-2.6402C147.1967,339.3818,147.672,336.8957,146.5287,334.7234z"/>
	<path clip-path="url(#SVGID_2_)" fill="#0F0F10" d="M71.3997,251.6241c-3.4786,2.567-0.5643,6.6751-2.9474,9.5988
		c2.2699,0.4478,3.0837-0.9502,3.5645-1.884c0.9641-1.8726,2.322-1.934,3.5554-0.9517c1.3979,1.1133,1.21,2.6333-0.2826,3.7903
		c-4.8257,3.7408-9.6566,7.4747-15.2058,10.9073c9.0621-8.9638,6.3723-21.6652,10.584-32.5829
		c1.2864,1.7822,0.9509,3.0624,0.643,4.3408C70.8427,247.1097,73.1582,249.3402,71.3997,251.6241z"/>
	<path clip-path="url(#SVGID_2_)" fill="#090809" d="M124.5255,293.0411c3.0005-0.8374,5.0917,0.4305,6.6717,2.8818
		c-0.2134,3.6329-1.5303,6.4386-5.505,7.1529c-2.1979,0.3949-4.4714,0.4629-5.6713-1.8311
		c-1.1427-2.1844-0.2438-4.2122,1.3878-5.8297C122.3283,294.5033,123.4789,293.8247,124.5255,293.0411z"/>
	<path clip-path="url(#SVGID_2_)" fill="#0A0A0C" d="M319.8503,236.131c-2.9963-0.0269-5.0905-0.7509-5.2607-3.781
		c-0.1668-2.9697,3.7628-6.7746,6.9474-6.643c2.6564,0.1098,4.6181,1.5785,4.4921,4.3111
		C325.8474,233.9606,323.1595,235.7249,319.8503,236.131z"/>
	<path clip-path="url(#SVGID_2_)" fill="#F9F8D2" d="M171.4279,265.6759c1.3333-2.9603,2.6667-5.9206,4-8.881
		c0.7678,3.8067,1.7958,7.5034,1.2265,11.5522c-0.3935,2.7985-1.4846,4.1703-4.0852,4.6248
		c0.0012,0.0013-0.1547-0.1551-0.1547-0.1551C170.6098,270.6404,171.1241,268.1436,171.4279,265.6759z"/>
	<path clip-path="url(#SVGID_2_)" fill="#1D1C1E" d="M227.1303,143.4845c0.8448,2.5113,0.1953,4.519,1.2341,6.4077
		c0.6859,1.2471-0.3194,2.5145-1.6617,3.1696c-1.222,0.5963-2.2733,0.2708-3.1213-0.7031
		c-0.9988-1.1472-1.0456-2.3105-0.0878-3.5832C224.6449,147.2458,225.6713,145.6221,227.1303,143.4845z"/>
	<path clip-path="url(#SVGID_2_)" fill="#F6EA86" d="M154.4133,344.8736c-0.6999,2.148-2.0565,4.0939-4.3639,3.7125
		c-2.8152-0.4655-1.2709-3.1538-1.565-4.8717c-0.1611-0.9404,0.0168-1.9389,0.042-2.9113c0.8873,1.495,1.7744,2.99,2.7814,4.6872
		c1.8428-1.264,0.7226-3.2717,1.2841-4.7626C155.097,341.276,154.1109,343.3578,154.4133,344.8736z"/>
	<path clip-path="url(#SVGID_2_)" d="M71.3997,251.6241c-0.604-2.2529-2.1752-4.4932-0.0889-6.7814
		c0.1736,0.2686,0.2994,0.7166,0.5283,0.7775c1.9788,0.5272,4.3721,1.2216,4.1471,3.5014
		C75.7796,251.2138,73.3299,251.4597,71.3997,251.6241z"/>
	<path clip-path="url(#SVGID_2_)" fill="#111111" d="M287.3492,282.6604c-1.4491-1.1046-4.6216,0.259-4.2326-2.9716
		c0.1449-1.2036,1.3409-1.9417,2.6503-1.7411C289.3312,278.4935,286.7498,281.054,287.3492,282.6604z"/>
	<path clip-path="url(#SVGID_2_)" fill="#020204" d="M67.9827,233.7526c1.3127,0.1949,2.1948,1.1297,2.5063,2.5092
		c0.2193,0.971-0.4134,1.6643-1.3747,1.5535c-1.4236-0.164-2.4338-1.019-2.697-2.4982
		C66.235,234.2919,66.8226,233.8143,67.9827,233.7526z"/>
	<path clip-path="url(#SVGID_2_)" fill="#F7ED8F" d="M144.4504,312.8578c3.4127,1.1761,1.4478,4.007,1.8774,6.1012
		C143.1052,317.7242,144.9275,314.9373,144.4504,312.8578z"/>
	<path clip-path="url(#SVGID_2_)" fill="#151418" d="M83.6335,239.5368c-0.347,1.4605-1.4287,1.0245-2.3268,0.9863
		c-0.8518-0.0362-1.6185-0.2437-1.4111-1.3623c0.1965-1.0596,0.7306-1.8045,1.9524-1.4726
		C82.7958,237.9458,83.5894,238.4378,83.6335,239.5368z"/>
	<path clip-path="url(#SVGID_2_)" fill="#0C0C0C" d="M47.9779,142.3011c-0.0814,0.4576,0.2607,1.6432-1.1346,1.0838
		c-0.9538-0.3824-2.5927-0.1232-2.4123-1.8339c0.1197-1.1345,1.1055-1.5923,2.1837-1.4828
		C47.7658,140.1851,48.4024,140.808,47.9779,142.3011z"/>
	<path clip-path="url(#SVGID_2_)" fill="#020204" d="M75.3963,233.8259c0.1222,1.6021-1.2389,1.5898-2.0246,1.6471
		c-1.1752,0.0857-0.6126-1.1166-0.7173-1.7288c-0.1385-0.8094-0.0152-1.8486,1.0428-1.8887
		C74.9305,231.8087,75.0849,233.0033,75.3963,233.8259z"/>
	<path clip-path="url(#SVGID_2_)" fill="#020204" d="M278.3615,215.3641c-0.4813,6.548,3.5569,6.8404,7.8625,6.53
		c9.0188-0.6501,16.9698-4.3647,24.6827-8.7567c1.4224-0.81,1.7152-1.6686,1.2325-3.2322
		c-2.9389-9.5207-1.1304-19.1182-0.224-28.6751c0.7009-7.3905,2.0151-14.6768,5.8363-22.3452
		c-4.4908,1.6972-9.8502,0.3015-9.0219,7.2591c0.2142,1.7996-1.3218,2.8299-3.4396,2.5623
		c-5.6628-0.7155-8.2163-6.0154-5.0397-10.7607c4.8266-7.21,12.565-8.9233,20.3076-10.0595
		c4.5558-0.6686,9.2974-0.3623,13.936-0.1208c14.0404,0.7311,25.6357,11.2873,26.5392,25.0603
		c0.5534,8.4358-3.372,15.9953-8.6218,22.3485c-15.1174,18.2949-34.2195,30.6447-57.2732,36.5911
		c-10.0956,2.604-18.2787-1.7302-20.1465-10.0498C274.373,218.9606,275.1075,217.2484,278.3615,215.3641z M335.1934,196.8738
		c6.648-6.1007,12.133-13.1405,14.7504-21.9751c2.3003-7.7642-1.3105-14.0398-9.1424-15.9162
		c-4.9717-1.1911-10.0544-1.2271-16.0739-1.0905c4.0118,3.9936,2.715,7.7481,1.6215,11.8298
		c-3.221,12.0232-4.3687,24.3724-5.1613,37.0335C327.5613,204.9889,331.1633,200.5721,335.1934,196.8738z"/>
	<path clip-path="url(#SVGID_2_)" fill="#010103" d="M181.4585,211.6076c0.4028,3.3949,0.8138,6.5291,1.1339,9.6725
		c0.21,2.0622-0.4111,3.7438-2.7928,3.8517c-2.0331,0.0921-2.9396-1.2674-3.1584-3.1424c-0.1543-1.3224-0.2836-2.6484-0.3881-3.9756
		c-0.3589-4.5588-0.5192-8.8216-7.3875-7.6556c-3.2485,0.5515-5.7382-1.823-6.4802-5.569
		c-0.7246-3.6579,0.2403-5.1071,4.1561-5.2483c2.3248-0.0838,6.2383,0.855,6.7262-2.3235c0.6566-4.2768-3.8131-3.0826-6.168-3.9756
		c-3.2545-1.2341-6.6527-2.0845-9.9314-3.2607c-8.865-3.18-12.7881-16.1153-2.2821-22.9585
		c2.224-1.4487,4.4529-3.0837,6.9212-3.9174c3.5611-1.2029,4.9796-2.8141,2.9578-6.4078c-0.4674-0.8308-0.6528-1.9009-0.6946-2.8726
		c-0.0711-1.6531,0.6841-2.8983,2.3751-3.3661c1.5233-0.4215,2.5683,0.3106,3.3086,1.5533c0.4234,0.7106,0.6413,1.5569,1.1239,2.216
		c0.983,1.3425,0.1211,4.5412,2.4897,4.0924c3.2843-0.6224,0.9334-3.5496,1.1554-5.433c0.1532-1.2995-0.2325-2.6536-0.1909-3.9775
		c0.0537-1.706,1.038-2.824,2.7298-3.046c1.7811-0.2337,2.763,0.8318,3.234,2.4449c0.7003,2.3986-0.5993,6.127,2.0672,6.9606
		c2.1697,0.6783,5.1495-0.8129,7.6475-1.6906c5.9294-2.0833,8.2241,0.1914,10.1199,5.5694c0.9962,2.8261,0.4404,5.554-3.5333,6.1867
		c-3.5891,0.5715-7.0848,1.7141-10.667,2.3499c-2.3745,0.4214-3.0192,1.5579-2.5782,3.7896
		c0.7415,3.7527,1.5363,7.5101,1.9608,11.3044c0.2531,2.2628,1.7745,2.5075,3.3308,3.0228
		c4.0101,1.3278,7.7115,3.2308,10.4686,6.5023c4.269,5.0656,3.0985,9.8484-3.2425,11.8168
		c-4.5563,1.4144-6.3411,3.2017-3.6733,7.8293c1.1035,1.9142,1.3045,4.5079-1.4343,5.4485
		c-2.8411,0.9757-3.667-1.4149-4.4155-3.5092c-0.3356-0.9392-0.5922-1.9084-0.9614-2.8333
		c-0.4633-1.1605-0.5308-2.7592-2.5228-2.3511C180.8455,209.1183,181.5092,210.6212,181.4585,211.6076z M169.994,181.9105
		c1.9604-1.1615,0.0025-5.1057-0.8002-7.9725c-3.4194,1.3936-6.3725,3.0718-9.3488,6.2179
		C163.7756,181.2822,167.5099,183.3822,169.994,181.9105z M178.6197,183.8891c0.1617-4.4776-0.1402-8.8528-2.7493-12.8275
		C175.9776,175.4742,175.6632,180.0493,178.6197,183.8891z"/>
	<path clip-path="url(#SVGID_2_)" fill="#010103" d="M145.7814,154.5754c-1.9741,10.4569-1.9732,20.7749-1.9632,31.097
		c0.0023,2.344-0.2372,4.2491,3.0563,5.0473c3.9856,0.966,3.4974,4.3547,1.3361,6.534c-2.0199,2.0367-2.8262,3.7106-1.9683,6.4265
		c0.4468,1.4144,0.3624,3.1454-1.1766,4.0133c-1.4586,0.8226-3.1119,0.2836-4.1373-0.778c-2.5176-2.6066-4.841-1.4342-7.5665-0.3682
		c-5.9639,2.3328-11.5603,6.1112-18.4153,5.3552c-1.2431-0.1371-1.8794,0.2475-2.1135,1.4272
		c-0.1296,0.6531-0.273,1.3035-0.4124,1.9547c-0.7573,3.5372-1.7929,7.1544-6.1874,7.1827
		c-3.1384,0.0202-6.2342-6.0002-5.3934-10.1049c1.7531-8.5581,5.485-16.4613,9.5428-24.0284
		c6.5068-12.1341,10.8201-25.2808,17.7927-37.1693c1.4523-2.4763,8.924-6.3528,11.7077-5.4644
		C144.242,147.0912,144.6623,151.2035,145.7814,154.5754z M132.4675,194.233c1.2462-0.3818,2.0982-0.9526,1.8789-2.4007
		c-1.0432-6.8864-0.9819-13.8644-1.9896-20.902c-4.396,8.8175-8.7921,17.635-13.8072,27.6943
		C124.0464,196.8836,128.2471,195.5262,132.4675,194.233z"/>
	<path clip-path="url(#SVGID_2_)" fill="#F8E10E" d="M137.9295,274.8604c-3.1737-0.8846-5.7898-2.5339-7.4805-5.4529
		c-1.4616-3.6009-3.2588-7.0275-3.3228-11.133c-0.0694-4.4509,1.3856-7.9006,4.9949-10.4607
		c0.2144,1.0321,0.4165,3.3064,0.958,2.7672c2.6662-2.6545,6.6564-2.3206,9.2535-4.636c0.5945-0.5301,2.0962-2.1479,0.3352-3.3275
		c-3.3887-2.27-2.2229-5.4404-1.8307-8.4803c2.1368,0.9598,4.6422-1.5505,6.6413,0.7055c1.6059,0.7827,3.2117,1.5653,4.8343,2.3561
		c-0.1867,0.3212-0.2774,0.6384-0.4869,0.8123c-1.7338,1.4397-4.5263,3.1047-2.5406,5.3777
		c1.8084,2.0701,3.7012-0.7167,5.3105-1.8927c1.1603-0.8478,2.0861-2.373,3.6294-0.6407c2.2347,2.5084,3.6676,0.8114,5.1041-0.9381
		c0.228,0.0419,0.4561,0.0838,0.6857,0.1224c2.4771,1.7708,3.9291,3.9143,2.5627,7.0787c-1.2455,0.9267-2.8839,1.1774-4.0092,2.3244
		c-4.7071,1.985-9.6304,3.4326-14.0173,6.2003c-3.7954,2.3945-7.2968,5.0231-10.5271,9.5438
		c2.9925-1.0778,4.5633-2.9557,6.7935-3.3323c1.2268-0.1978,2.4146-0.1454,3.4991,0.5471c1.6713,2.5137-0.6169,3.0363-2.0218,3.9966
		c-1.3858,0.9472-3.1711,2.0699-2.3599,3.8536c0.9627,2.1167,2.7246,0.8118,4.206,0.1292c3.7638-1.7341,6.0449,0.5127,8.1609,3.1347
		c-0.936,0.4558-1.8719,0.9116-2.8078,1.3674C148.3042,276.0081,143.1158,276.1122,137.9295,274.8604z"/>
	<path clip-path="url(#SVGID_2_)" fill="#0E0806" d="M144.3065,262.8408c-1.5911,1.1414-3.2555,2.1964-4.7438,3.459
		c-0.7972,0.6764-1.4282,1.5099-2.4539,0.644c-0.9294-0.7845-0.5721-1.8286-0.1144-2.7188c1.4851-2.888,3.9674-4.8462,6.5159-6.6962
		c5.6715-4.1172,11.7924-7.2947,18.7393-8.6705c1.5386-1.3832,3.4727-0.8498,5.2474-1.0891
		c1.0321,0.0535,1.9821,0.3853,2.8862,0.866c0.9253,0.4421,1.4343,1.291,2.0061,2.0798c-0.0723,1.7419,0.6568,3.6059-0.7829,5.1395
		c-0.8854-0.5776-0.7227-1.3286-0.4911-1.9419c-0.445,0.685-0.799,1.7107-1.677,2.358c-1.0661,3.2649-1.7131,6.6972-3.8779,9.5086
		c-0.3693,0.3573-0.7387,0.7147-1.108,1.072c-0.592,0.7651-1.1036,1.7376-2.3195,0.9011c-0.9244-1.3208-0.8507-2.7608-0.5112-4.2313
		c0.1375-0.4474,0.3345-0.8741,0.5727-1.2751c0.9046-2.2971,2.6679-4.7674-1.2633-6.0461c-0.8618,0.032-1.6528,0.301-2.4091,0.6982
		c-1.3722,0.7994-2.8813,1.0739-4.4306,1.1919c-1.3276,0.0472-2.4193,0.6843-3.4734,1.4133
		C148.6985,260.9667,146.4393,261.7838,144.3065,262.8408z"/>
	<path clip-path="url(#SVGID_2_)" fill="#F8DE0D" d="M156.3018,273.5161c-1.2135-1.1055-3.1422-0.4837-4.3097-2.0524
		c-1.0159-1.3651-2.2815-1.2292-3.6505,0.2494c-1.8196,1.9655-4.5908,1.9016-6.0335-0.0123
		c-1.4087-1.869,0.5264-3.7538,1.7662-5.5305c1.1691-1.6755,4.2551-0.5057,4.3819-3.3002c-1.0142-3.532,1.4859-2.74,3.3492-2.7326
		c2.4825,1.0684,1.2301,4.2151,3.1246,5.6112c1.3358,1.4216,3.2009,1.7993,4.9155,2.4834c1.5568,1.3246,1.4963,2.4982-0.3285,3.5027
		C158.4453,272.3285,157.3736,272.9223,156.3018,273.5161z"/>
	<path clip-path="url(#SVGID_2_)" fill="#F1EEBF" d="M172.3893,250.7149c-0.7387-0.4172-1.4774-0.8344-2.2161-1.2517
		c-0.8445-2.1387-1.9427-4.1624-2.8081-6.2964c-0.6752-1.6652-1.5004-3.3693-3.7829-3.2735c0,0-0.2526,0.0224-0.2528,0.0232
		c0.3828-2.0428-0.4706-3.6461-2.0602-4.7361c-2.0379-1.3975-1.8406-3.0852-0.601-4.6249c1.672-2.077,2.9508,0.0502,4.1444,0.8462
		C171.795,236.0581,173.063,243.0198,172.3893,250.7149z"/>
	<path clip-path="url(#SVGID_2_)" fill="#E7DD76" d="M132.1211,247.8138c-2.2713,4.2879-4.3366,8.5217-3.6662,13.7234
		c0.356,2.7625,2.9352,4.8675,1.9939,7.8702c-6.2313-7.4909-5.2563-15.9571-3.1224-24.472
		c0.8996-3.5898,3.8936-1.3904,5.2779-0.8467C135.4831,245.2193,132.3949,246.5274,132.1211,247.8138z"/>
	<path clip-path="url(#SVGID_2_)" fill="#F2E893" d="M171.4279,265.6759c1.3268,2.2426,1.0349,4.7091,0.9871,7.1414
		c-1.6392,0.0717-1.9217,1.3902-2.5053,2.5551c-1.5546,3.1031-3.5415,5.7257-7.5416,5.5564
		c-1.5778-1.5468-1.5778-1.5468,0.3242-5.899c1.1363-1.8579,2.5975-3.3624,4.6495-4.2124
		C168.7038,269.1035,170.0658,267.3897,171.4279,265.6759z"/>
	<path clip-path="url(#SVGID_2_)" fill="#EBDF92" d="M162.2709,281.5118c-0.0318,0.1632-0.0117,0.3667-0.1028,0.4839
		c-3.5553,4.5759-10.6116,6.0446-11.5108,12.9796c-0.1119-2.0096-0.2243-4.0195-0.3367-6.0294
		c-0.2799-1.663-0.6713-3.3292,0.1444-4.9603c3.024-1.6856,6.048-3.3712,9.0721-5.0568
		C161.7587,278.4029,160.3904,281.6766,162.2709,281.5118z"/>
	<path clip-path="url(#SVGID_2_)" fill="#E7E7C1" d="M140.2216,233.0543c-2.0927-0.1852-3.1659,1.2082-3.4727,2.8602
		c-0.628,3.3822-2.9467,2.2696-4.4923,1.5684c-2.8364-1.2867-0.2537-2.7523,0.435-3.7553
		c4.1289-6.0132,7.8697-6.4012,12.7758-1.5283C144.1159,234.9208,142.0849,233.4736,140.2216,233.0543z"/>
	<path clip-path="url(#SVGID_2_)" fill="#BFAE39" d="M150.465,283.9855c1.2527,1.6902,0.6661,3.3273-0.1436,4.9592
		c-5.3088,0.185-6.6271,3.3389-5.9433,7.9832c-1.5583-2.5007-0.4261-6.3785-4.0142-7.8396
		c-0.2958-1.3111-3.893-1.8995-0.8622-3.9388C143.4563,287.588,146.7286,283.6011,150.465,283.9855z"/>
	<path clip-path="url(#SVGID_2_)" fill="#BAB59D" d="M139.5018,285.1496c-1.5237,1.7084,2.0223,2.3055,0.8623,3.9365
		c-5.8196-1.8971-11.0655-4.3815-11.7515-11.5176C131.9195,280.5591,135.1717,283.6285,139.5018,285.1496z"/>
	<path clip-path="url(#SVGID_2_)" fill="#992217" d="M162.2709,281.5118c-1.9404,0.2285-1.5281-2.0344-2.7344-2.5828
		c0.9767-2.4008,1.755-4.8007-0.0204-7.1935c0.2663-0.9958,1.6673-2.0117-0.0535-2.9704c-0.5159-2.1089-0.9378-4.2151,0.1723-6.2815
		c0.9894-0.4719,1.9168-0.4668,2.7372,0.3559c0.0967,1.6389,0.1933,3.2777,0.29,4.9166c1.7186,2.2575,1.0254,4.8363,0.9764,7.3293
		c0.3517,2.1158-3.2016,3.3825-1.2703,5.8426C162.226,281.1048,162.1936,281.2991,162.2709,281.5118z"/>
	<path clip-path="url(#SVGID_2_)" fill="#E4E0C7" d="M157.5275,228.4738c-0.7992,1.9036-1.5231,2.9803-3.4768,2.3993
		c-2.2639-0.6733-4.9999-0.6159-5.0747-3.9758c-0.0238-1.0683,0.1418-1.3257,2.3582-0.6704
		C153.4119,226.8413,156.2389,226.0552,157.5275,228.4738z"/>
	<path clip-path="url(#SVGID_2_)" fill="#290E0C" d="M163.6384,275.0853c-2.1082-2.2052-0.8884-4.8542-0.9768-7.329
		c0.5972-0.3019,1.194-0.6035,1.7909-0.9052c0.1579,1.9087,1.9186,2.6494,2.8894,3.9659
		C166.6262,272.6902,165.0294,273.7985,163.6384,275.0853z"/>
	<path clip-path="url(#SVGID_2_)" fill="#E3D165" d="M137.9295,274.8604c5.1883,0.0076,10.3766,0.0152,15.5647,0.0229
		C148.3025,277.1177,143.1138,277.4637,137.9295,274.8604z"/>
	<path clip-path="url(#SVGID_2_)" fill="#EFE678" d="M140.2216,233.0543c1.7478-0.2857,3.4955-0.5714,5.2445-0.856
		c1.5424,0.2197,2.375,0.9774,2.0123,2.6445c-1.5445,0.3075-3.2514-0.6974-4.6718,0.497c-1.9438,1.6344-0.9821-1.3564-1.9707-1.2046
		C140.6319,233.7762,140.4267,233.4153,140.2216,233.0543z"/>
	<path clip-path="url(#SVGID_2_)" fill="#D3C666" d="M168.6183,255.1661c0.9182,0.5674,3.0873-4.2948,2.9881,0.6884
		c-0.7565,1.6147-1.5131,3.2294-2.2697,4.8441C166.8201,259.1501,167.8568,257.1403,168.6183,255.1661z"/>
	<path clip-path="url(#SVGID_2_)" fill="#696047" d="M168.6183,255.1661c0.2348,1.8448-1.2251,3.9097,0.7183,5.5327
		c-0.7043,2.1062-2.1024,3.6968-3.7768,5.081C166.5798,262.2415,167.599,258.7038,168.6183,255.1661z"/>
	<path clip-path="url(#SVGID_2_)" fill="#F7EA74" d="M163.5822,239.8934c1.061-1.4686,1.8446-4.8037,3.2902-0.0377
		c0.9779,3.2239,4.3149,5.6563,3.3053,9.6091c-0.6644-0.1777-1.3243-0.3539-1.9842-0.5301
		c-0.4539-0.7844-1.3617-1.1982-1.6979-2.0788C166.6659,244.0574,164.3528,242.2981,163.5822,239.8934z"/>
	<path clip-path="url(#SVGID_2_)" fill="#E6D52D" d="M152.3165,260.9273c-1.5766,0.0714-3.552-0.6498-3.8602,1.9426
		c-1.3828-0.0098-2.7656-0.0198-4.1491-0.0295c1.5974-1.8825,3.6528-3.1022,5.8879-4.0614
		C152.3369,258.0783,153.3592,258.4832,152.3165,260.9273z"/>
	<path clip-path="url(#SVGID_2_)" fill="#F9D53B" d="M166.4956,246.8559c1.3077,0.0869,1.9769,0.6968,1.7006,2.0789
		c-1.9823-0.0258-3.9619-0.0515-5.9441-0.077C162.7772,246.3082,164.8222,246.976,166.4956,246.8559z"/>
	<path clip-path="url(#SVGID_2_)" fill="#F8DE0D" d="M140.6188,269.819c-1.8848,0.5046-2.1829,2.467-4.0362,2.4114
		c-0.1826-0.0055-0.6105-0.9642-0.4682-1.1811C137.0082,269.6872,137.9799,268.2778,140.6188,269.819z"/>
	<path clip-path="url(#SVGID_2_)" fill="#2B0D08" d="M159.5126,262.8293c0.9766,1.9872,1.3378,3.9691-0.0505,5.9359
		c-2.1548,0.5651-3.7495-0.3081-5.0391-1.9641c-2.3442-3.0128-1.395-6.4455-1.2463-9.7762c1.7531-0.2072,3.592-0.0483,5.123-1.202
		C160.3708,257.8699,159.8995,260.3569,159.5126,262.8293z"/>
	<path clip-path="url(#SVGID_2_)" fill="#D60F0D" d="M159.5126,262.8293c-2.1146-2.0394-1.0204-4.6341-1.2128-7.0063
		c0.4791-0.8077,1.2543-0.8841,2.0778-0.8409c4.067,1.9621,4.2808,2.7613,2.1111,7.8918c0,0-0.1161-0.035-0.1164-0.0347
		C161.4189,262.8361,160.4657,262.8327,159.5126,262.8293z"/>
	<path clip-path="url(#SVGID_2_)" fill="#690F12" d="M162.4887,262.8738c0.3984-2.9256,1.393-6.0107-2.1111-7.8921
		c1.5921-0.1016,3.6899-0.5933,3.8426,1.6721C164.3635,258.7793,165.9208,261.6288,162.4887,262.8738z"/>
	<path clip-path="url(#SVGID_2_)" fill="#D7C368" d="M153.1767,257.0249c0.4156,3.2592,0.8313,6.5183,1.2466,9.7768
		c-3.3989-0.9927-1.4297-3.9077-2.1058-5.8749c0.187-1.5987-0.7631-2.0749-2.1219-2.1481
		C151.0064,257.8841,151.6133,256.6416,153.1767,257.0249z"/>
</g>
</svg>
